<?xml version="1.0" standalone="no"?><!DOCTYPE svg PUBLIC "-//W3C//DTD SVG 1.1//EN" "http://www.w3.org/Graphics/SVG/1.1/DTD/svg11.dtd"><svg xmlns:xlink="http://www.w3.org/1999/xlink" version="1.1" class="highcharts-root" style="font-family:&quot;Lucida Grande&quot;, &quot;Lucida Sans Unicode&quot;, Arial, Helvetica, sans-serif;font-size:12px;" xmlns="http://www.w3.org/2000/svg" width="600" height="400" viewBox="0 0 600 400"><desc>Created with Highcharts 6.1.0</desc><defs><clipPath id="highcharts-cc3pkoi-18"><rect x="0" y="0" width="524" height="283" fill="none"></rect></clipPath></defs><rect fill="#ffffff" class="highcharts-background" x="0" y="0" width="600" height="400" rx="0" ry="0"></rect><rect fill="none" class="highcharts-plot-background" x="66" y="45" width="524" height="283"></rect><g class="highcharts-grid highcharts-xaxis-grid "><path fill="none" class="highcharts-grid-line" d="M 170.5 45 L 170.5 328" opacity="1"></path><path fill="none" class="highcharts-grid-line" d="M 275.5 45 L 275.5 328" opacity="1"></path><path fill="none" class="highcharts-grid-line" d="M 379.5 45 L 379.5 328" opacity="1"></path><path fill="none" class="highcharts-grid-line" d="M 484.5 45 L 484.5 328" opacity="1"></path><path fill="none" class="highcharts-grid-line" d="M 589.5 45 L 589.5 328" opacity="1"></path><path fill="none" class="highcharts-grid-line" d="M 65.5 45 L 65.5 328" opacity="1"></path></g><g class="highcharts-grid highcharts-yaxis-grid "><path fill="none" stroke="#e6e6e6" stroke-width="1" class="highcharts-grid-line" d="M 66 328.5 L 590 328.5" opacity="1"></path><path fill="none" stroke="#e6e6e6" stroke-width="1" class="highcharts-grid-line" d="M 66 257.5 L 590 257.5" opacity="1"></path><path fill="none" stroke="#e6e6e6" stroke-width="1" class="highcharts-grid-line" d="M 66 187.5 L 590 187.5" opacity="1"></path><path fill="none" stroke="#e6e6e6" stroke-width="1" class="highcharts-grid-line" d="M 66 116.5 L 590 116.5" opacity="1"></path><path fill="none" stroke="#e6e6e6" stroke-width="1" class="highcharts-grid-line" d="M 66 44.5 L 590 44.5" opacity="1"></path></g><rect fill="none" class="highcharts-plot-border" x="66" y="45" width="524" height="283"></rect><g class="highcharts-axis highcharts-xaxis "><path fill="none" class="highcharts-tick" stroke="#ccd6eb" stroke-width="1" d="M 170.5 328 L 170.5 338" opacity="1"></path><path fill="none" class="highcharts-tick" stroke="#ccd6eb" stroke-width="1" d="M 275.5 328 L 275.5 338" opacity="1"></path><path fill="none" class="highcharts-tick" stroke="#ccd6eb" stroke-width="1" d="M 379.5 328 L 379.5 338" opacity="1"></path><path fill="none" class="highcharts-tick" stroke="#ccd6eb" stroke-width="1" d="M 484.5 328 L 484.5 338" opacity="1"></path><path fill="none" class="highcharts-tick" stroke="#ccd6eb" stroke-width="1" d="M 590.5 328 L 590.5 338" opacity="1"></path><path fill="none" class="highcharts-tick" stroke="#ccd6eb" stroke-width="1" d="M 65.5 328 L 65.5 338" opacity="1"></path><path fill="none" class="highcharts-axis-line" stroke="#ccd6eb" stroke-width="1" d="M 66 328.5 L 590 328.5"></path></g><g class="highcharts-axis highcharts-yaxis "><text x="23.828125" text-anchor="middle" transform="translate(0,0) rotate(270 23.828125 186.5)" class="highcharts-axis-title" style="color:#666666;fill:#666666;" y="186.5"><tspan>Values</tspan></text><path fill="none" class="highcharts-axis-line" d="M 66 45 L 66 328"></path></g><text x="116" y="75" style="position:absolute;color:black;fill:black;"><tspan>Total fruit consumption</tspan></text><g class="highcharts-series-group"><g class="highcharts-series highcharts-series-0 highcharts-column-series highcharts-color-0 " transform="translate(66,45) scale(1 1)" clip-path="url(#highcharts-cc3pkoi-18)"><rect x="22.5" y="198.5" width="17" height="85" fill="#7cb5ec" stroke="#ffffff" stroke-width="1" class="highcharts-point highcharts-color-0"></rect><rect x="127.5" y="226.5" width="17" height="57" fill="#7cb5ec" stroke="#ffffff" stroke-width="1" class="highcharts-point highcharts-color-0"></rect><rect x="232.5" y="255.5" width="17" height="28" fill="#7cb5ec" stroke="#ffffff" stroke-width="1" class="highcharts-point highcharts-color-0"></rect><rect x="336.5" y="198.5" width="17" height="85" fill="#7cb5ec" stroke="#ffffff" stroke-width="1" class="highcharts-point highcharts-color-0"></rect><rect x="441.5" y="170.5" width="17" height="113" fill="#7cb5ec" stroke="#ffffff" stroke-width="1" class="highcharts-point highcharts-color-0"></rect></g><g class="highcharts-markers highcharts-series-0 highcharts-column-series highcharts-color-0 " transform="translate(66,45) scale(1 1)" clip-path="none"></g><g class="highcharts-series highcharts-series-1 highcharts-column-series highcharts-color-1 " transform="translate(66,45) scale(1 1)" clip-path="url(#highcharts-cc3pkoi-18)"><rect x="43.5" y="226.5" width="17" height="57" fill="#434348" stroke="#ffffff" stroke-width="1" class="highcharts-point highcharts-color-1"></rect><rect x="148.5" y="198.5" width="17" height="85" fill="#434348" stroke="#ffffff" stroke-width="1" class="highcharts-point highcharts-color-1"></rect><rect x="253.5" y="142.5" width="17" height="141" fill="#434348" stroke="#ffffff" stroke-width="1" class="highcharts-point highcharts-color-1"></rect><rect x="357.5" y="85.5" width="17" height="198" fill="#434348" stroke="#ffffff" stroke-width="1" class="highcharts-point highcharts-color-1"></rect><rect x="462.5" y="113.5" width="17" height="170" fill="#434348" stroke="#ffffff" stroke-width="1" class="highcharts-point highcharts-color-1"></rect></g><g class="highcharts-markers highcharts-series-1 highcharts-column-series highcharts-color-1 " transform="translate(66,45) scale(1 1)" clip-path="none"></g><g class="highcharts-series highcharts-series-2 highcharts-column-series highcharts-color-2 " transform="translate(66,45) scale(1 1)" clip-path="url(#highcharts-cc3pkoi-18)"><rect x="64.5" y="170.5" width="17" height="113" fill="#90ed7d" stroke="#ffffff" stroke-width="1" class="highcharts-point highcharts-color-2"></rect><rect x="169.5" y="198.5" width="17" height="85" fill="#90ed7d" stroke="#ffffff" stroke-width="1" class="highcharts-point highcharts-color-2"></rect><rect x="274.5" y="198.5" width="17" height="85" fill="#90ed7d" stroke="#ffffff" stroke-width="1" class="highcharts-point highcharts-color-2"></rect><rect x="378.5" y="28.5" width="17" height="255" fill="#90ed7d" stroke="#ffffff" stroke-width="1" class="highcharts-point highcharts-color-2"></rect><rect x="483.5" y="283.5" width="17" height="0" fill="#90ed7d" stroke="#ffffff" stroke-width="1" class="highcharts-point highcharts-color-2"></rect></g><g class="highcharts-markers highcharts-series-2 highcharts-column-series highcharts-color-2 " transform="translate(66,45) scale(1 1)" clip-path="none"></g><g class="highcharts-series highcharts-series-3 highcharts-spline-series highcharts-color-3 " transform="translate(66,45) scale(1 1)" clip-path="url(#highcharts-cc3pkoi-18)"><path fill="none" d="M 52.4 198.1 C 52.4 198.1 115.28 207.43900000000002 157.2 207.43900000000002 C 199.11999999999998 207.43900000000002 220.08 207.43900000000002 262 198.1 C 303.91999999999996 188.76099999999997 324.88 103.86099999999999 366.8 103.86099999999999 C 408.72 103.86099999999999 471.6 188.761 471.6 188.761" class="highcharts-graph" stroke="#f7a35c" stroke-width="2" stroke-linejoin="round" stroke-linecap="round"></path></g><g class="highcharts-markers highcharts-series-3 highcharts-spline-series highcharts-color-3 " transform="translate(66,45) scale(1 1)" clip-path="none"><path fill="white" d="M 56 198 A 4 4 0 1 1 55.99999800000017 197.99600000066667 Z" stroke="#f7a35c" stroke-width="2" class="highcharts-point highcharts-color-3"></path><path fill="white" d="M 161 207 A 4 4 0 1 1 160.99999800000018 206.99600000066667 Z" stroke="#f7a35c" stroke-width="2" class="highcharts-point highcharts-color-3"></path><path fill="white" d="M 266 198 A 4 4 0 1 1 265.9999980000002 197.99600000066667 Z" stroke="#f7a35c" stroke-width="2" class="highcharts-point highcharts-color-3"></path><path fill="white" d="M 370 104 A 4 4 0 1 1 369.9999980000002 103.99600000066667 Z" stroke="#f7a35c" stroke-width="2" class="highcharts-point highcharts-color-3"></path><path fill="white" d="M 475 189 A 4 4 0 1 1 474.9999980000002 188.99600000066667 Z" stroke="#f7a35c" stroke-width="2" class="highcharts-point highcharts-color-3"></path></g><g class="highcharts-series highcharts-series-4 highcharts-pie-series " transform="translate(66,45) scale(1 1)"><path fill="#7cb5ec" d="M 119.98981633981523 50.00000103706936 A 50 50 0 0 1 169.8108943235599 95.65548544862038 L 120 100 A 0 0 0 0 0 120 100 Z" transform="translate(0,0)" stroke="#ffffff" stroke-width="1" stroke-linejoin="round" class="highcharts-point highcharts-color-0"></path><path fill="#434348" d="M 169.81521393194208 95.70529850689923 A 50 50 0 0 1 78.74995837021325 128.256575615967 L 120 100 A 0 0 0 0 0 120 100 Z" transform="translate(0,0)" stroke="#ffffff" stroke-width="1" stroke-linejoin="round" class="highcharts-point highcharts-color-1"></path><path fill="#90ed7d" d="M 78.72172242432582 128.2153114529256 A 50 50 0 0 1 119.93055100309643 50.00004823165497 L 120 100 A 0 0 0 0 0 120 100 Z" transform="translate(0,0)" stroke="#ffffff" stroke-width="1" stroke-linejoin="round" class="highcharts-point highcharts-color-2"></path></g><g class="highcharts-markers highcharts-series-4 highcharts-pie-series " transform="translate(66,45) scale(1 1)"></g></g><g class="highcharts-label" opacity="1" transform="translate(328,247)"><path fill="none" class="highcharts-label-box" d="M 0 0" stroke="#f7a35c" stroke-width="1"></path><text x="0" style="font-weight:bold;color:#f7a35c;fill:#f7a35c;" y="12">Average</text></g><text x="300" text-anchor="middle" class="highcharts-title" style="color:#333333;font-size:18px;fill:#333333;" y="24"><tspan>Combination chart</tspan></text><text x="300" text-anchor="middle" class="highcharts-subtitle" style="color:#666666;fill:#666666;" y="44"></text><g class="highcharts-legend" transform="translate(154,360)"><rect fill="none" class="highcharts-legend-box" rx="0" ry="0" x="0" y="0" width="292" height="25" visibility="visible"></rect><g><g><g class="highcharts-legend-item highcharts-column-series highcharts-color-0 highcharts-series-0" transform="translate(8,3)"><text x="21" style="color:#333333;font-size:12px;font-weight:bold;cursor:pointer;fill:#333333;" text-anchor="start" y="15"><tspan>Jane</tspan></text><rect x="2" y="4" width="12" height="12" fill="#7cb5ec" rx="6" ry="6" class="highcharts-point"></rect></g><g class="highcharts-legend-item highcharts-column-series highcharts-color-1 highcharts-series-1" transform="translate(78.671875,3)"><text x="21" y="15" style="color:#333333;font-size:12px;font-weight:bold;cursor:pointer;fill:#333333;" text-anchor="start"><tspan>John</tspan></text><rect x="2" y="4" width="12" height="12" fill="#434348" rx="6" ry="6" class="highcharts-point"></rect></g><g class="highcharts-legend-item highcharts-column-series highcharts-color-2 highcharts-series-2" transform="translate(150,3)"><text x="21" y="15" style="color:#333333;font-size:12px;font-weight:bold;cursor:pointer;fill:#333333;" text-anchor="start"><tspan>Joe</tspan></text><rect x="2" y="4" width="12" height="12" fill="#90ed7d" rx="6" ry="6" class="highcharts-point"></rect></g><g class="highcharts-legend-item highcharts-spline-series highcharts-color-3 highcharts-series-3" transform="translate(214,3)"><path fill="none" d="M 0 11 L 16 11" class="highcharts-graph" stroke="#f7a35c" stroke-width="2"></path><path fill="white" d="M 12 11 A 4 4 0 1 1 11.999998000000167 10.996000000666664 Z" class="highcharts-point" stroke="#f7a35c" stroke-width="2"></path><text x="21" y="15" style="color:#333333;font-size:12px;font-weight:bold;cursor:pointer;fill:#333333;" text-anchor="start"><tspan>Average</tspan></text></g></g></g></g><g class="highcharts-axis-labels highcharts-xaxis-labels "><text x="118.4" style="color:#666666;cursor:default;font-size:11px;fill:#666666;" text-anchor="middle" transform="translate(0,0)" y="347" opacity="1">Apples</text><text x="223.20000000000002" style="color:#666666;cursor:default;font-size:11px;fill:#666666;" text-anchor="middle" transform="translate(0,0)" y="347" opacity="1">Oranges</text><text x="328" style="color:#666666;cursor:default;font-size:11px;fill:#666666;" text-anchor="middle" transform="translate(0,0)" y="347" opacity="1">Pears</text><text x="432.8" style="color:#666666;cursor:default;font-size:11px;fill:#666666;" text-anchor="middle" transform="translate(0,0)" y="347" opacity="1">Bananas</text><text x="537.6" style="color:#666666;cursor:default;font-size:11px;fill:#666666;" text-anchor="middle" transform="translate(0,0)" y="347" opacity="1">Plums</text></g><g class="highcharts-axis-labels highcharts-yaxis-labels "><text x="51" style="color:#666666;cursor:default;font-size:11px;fill:#666666;" text-anchor="end" transform="translate(0,0)" y="333" opacity="1">0</text><text x="51" style="color:#666666;cursor:default;font-size:11px;fill:#666666;" text-anchor="end" transform="translate(0,0)" y="262" opacity="1">2.5</text><text x="51" style="color:#666666;cursor:default;font-size:11px;fill:#666666;" text-anchor="end" transform="translate(0,0)" y="192" opacity="1">5</text><text x="51" style="color:#666666;cursor:default;font-size:11px;fill:#666666;" text-anchor="end" transform="translate(0,0)" y="121" opacity="1">7.5</text><text x="51" style="color:#666666;cursor:default;font-size:11px;fill:#666666;" text-anchor="end" transform="translate(0,0)" y="50" opacity="1">10</text></g><text x="590" class="highcharts-credits" text-anchor="end" style="cursor:pointer;color:#999999;font-size:9px;fill:#999999;" y="395">Highcharts.com</text></svg>